<?xml version="1.0" encoding="UTF-8"?>
<svg width="16px" height="16px" viewBox="0 0 16 16" version="1.1" xmlns="http://www.w3.org/2000/svg" xmlns:xlink="http://www.w3.org/1999/xlink">
    <!-- Generator: Sketch 64 (93537) - https://sketch.com -->
    <title>c</title>
    <desc>Created with Sketch.</desc>
    <g id="Page-1" stroke="none" stroke-width="1" fill="none" fill-rule="evenodd">
        <g id="Artboard" fill="#808080" fill-rule="nonzero">
            <path d="M7.99998093,15.7499958 C12.2801831,15.7499958 15.7499624,12.2802165 15.7499624,8.00001431 C15.7499624,3.71981211 12.2801831,0.250032783 7.99998093,0.250032783 C3.71977873,0.250032783 0.249999404,3.71981211 0.249999404,8.00001431 C0.249999404,12.2802165 3.71977873,15.7499958 7.99998093,15.7499958 Z M6.39640809,12.1035507 L3.14641584,8.85355841 C2.95119536,8.65830741 2.95119536,8.3416883 3.14641584,8.1464373 L3.85353696,7.4393467 C4.04878795,7.2440957 4.36540707,7.2440957 4.56065807,7.4393467 L6.74998391,9.62870305 L11.4393038,4.93938317 C11.6345853,4.74410166 11.9512044,4.74410166 12.1464249,4.93938317 L12.853546,5.64647377 C13.0487665,5.84172477 13.0487665,6.15834389 12.853546,6.35359489 L7.10355972,12.1035812 C6.90827821,12.2988017 6.59168961,12.2988017 6.39640809,12.1035507 Z" id="c"></path>
        </g>
    </g>
</svg>