<?xml version="1.0" encoding="UTF-8"?>
<svg width="3.125rem" height="5.875rem" viewBox="0 0 50 94" version="1.1" xmlns="http://www.w3.org/2000/svg" xmlns:xlink="http://www.w3.org/1999/xlink">
    <!-- Generator: Sketch 64 (93537) - https://sketch.com -->
    <title>Path</title>
    <desc>Created with Sketch.</desc>
    <g id="Page-1" stroke="none" stroke-width="1" fill="none" fill-rule="evenodd">
        <g id="Artboard" fill="#D8D8D8">
            <path d="M5.21306518,0 C29.9482063,0 50,20.2181505 50,45.158503 C50,67.4674727 33.9562059,85.9981252 12.8678087,89.6600164 L13.0539507,91.8175133 C13.0824269,92.1456976 13.0303453,92.4759041 12.9023023,92.7789902 C12.4919918,93.7502227 11.4119925,94.2269076 10.4363777,93.8948525 L10.2909152,93.8389394 L1.21068221,89.9389549 C0.847340148,89.7828985 0.538250194,89.5213895 0.322735497,89.1876977 C-0.247178259,88.3052728 -0.0405922383,87.1390247 0.771326896,86.5059916 L0.904530169,86.4105893 L9.17516105,80.980007 C9.4489523,80.8002328 9.76242259,80.6911772 10.0879066,80.6624648 C11.1332831,80.5702474 12.0604968,81.3103328 12.2259622,82.3382082 L12.2443486,82.4869465 L12.5194154,85.645241 C31.5694094,82.1730471 46.0189391,65.3672088 46.0189391,45.158503 C46.0189391,22.4350707 27.7495271,4.01408916 5.21306518,4.01408916 L5.21306518,0 Z" id="Path" transform="translate(25.000000, 47.000000) scale(-1, -1) translate(-25.000000, -47.000000) "></path>
        </g>
    </g>
</svg>