<?xml version="1.0" encoding="UTF-8"?>
<svg width="16" height="16" viewBox="0 0 16 16" version="1.1" xmlns="http://www.w3.org/2000/svg" xmlns:xlink="http://www.w3.org/1999/xlink">
    <!-- Generator: Sketch 64 (93537) - https://sketch.com -->
    <title>G</title>
    <desc>Created with Sketch.</desc>
    <g id="Page-1" stroke="none" stroke-width="1" fill="none" fill-rule="evenodd">
        <g id="Artboard" fill="#000000" fill-rule="nonzero">
            <path d="M9.43250689,16 C10.56382,16 11.6804408,15.9361502 12.7823691,15.8084507 C13.8842975,15.6807512 14.9568411,15.5042254 16,15.2788732 L16,7.97746479 L12.0330579,7.97746479 L12.0330579,12.3042254 C11.0192837,12.3943662 10.1157025,12.4394366 9.32231405,12.4394366 C8,12.4394366 6.9825528,12.3305164 6.26997245,12.1126761 C5.5573921,11.8948357 5.03581267,11.5868545 4.70523416,11.1887324 C4.37465565,10.7906103 4.18365473,10.3211268 4.1322314,9.78028169 C4.08080808,9.23943662 4.05509642,8.64600939 4.05509642,8 C4.05509642,7.35399061 4.08080808,6.76056338 4.1322314,6.21971831 C4.18365473,5.67887324 4.37465565,5.21314554 4.70523416,4.82253521 C5.03581267,4.43192488 5.5573921,4.12769953 6.26997245,3.90985915 C6.9825528,3.69201878 8,3.58309859 9.32231405,3.58309859 C10.1450872,3.58309859 11.1184573,3.64694836 12.2424242,3.77464789 C13.3663912,3.90234742 14.4719927,4.11643192 15.5592287,4.41690141 L15.5592287,0.743661972 C14.5895317,0.503286385 13.59045,0.319248826 12.5619835,0.191549296 C11.533517,0.0638497653 10.4903581,0 9.43250689,0 L8.63911846,0 C6.94949495,0 5.55004591,0.195305164 4.44077135,0.585915493 C3.33149679,0.976525822 2.44628099,1.50610329 1.78512397,2.17464789 C1.12396694,2.84319249 0.661157025,3.62816901 0.396694215,4.52957746 C0.132231405,5.43098592 0,6.39248826 0,7.41408451 L0,8.58591549 C0,9.60751174 0.132231405,10.5690141 0.396694215,11.4704225 C0.661157025,12.371831 1.12396694,13.1568075 1.78512397,13.8253521 C2.44628099,14.4938967 3.33149679,15.0234742 4.44077135,15.4140845 C5.55004591,15.8046948 6.94949495,16 8.63911846,16 L9.43250689,16 Z" id="G"></path>
        </g>
    </g>
</svg>