<?xml version="1.0" encoding="UTF-8"?>
<svg width="1rem" height="1rem" viewBox="0 0 16 16" version="1.1" xmlns="http://www.w3.org/2000/svg" xmlns:xlink="http://www.w3.org/1999/xlink">
    <!-- Generator: Sketch 64 (93537) - https://sketch.com -->
    <title>i</title>
    <desc>Created with Sketch.</desc>
    <g id="Page-1" stroke="none" stroke-width="1" fill="none" fill-rule="evenodd">
        <g id="Artboard" fill="#808080" fill-rule="nonzero">
            <path d="M8,16 C12.4179688,16 16,12.4192603 16,8 C16,3.58332283 12.4179688,0 8,0 C3.58203125,0 0,3.58332283 0,8 C0,12.4192603 3.58203125,16 8,16 Z M8,6 C7.1715611,6 6.5,5.3284389 6.5,4.5 C6.5,3.6715611 7.1715611,3 8,3 C8.8284389,3 9.5,3.6715611 9.5,4.5 C9.5,5.3284389 8.8284389,6 8,6 Z M9.82142857,12 L6.67857143,12 C6.44189453,12 6.25,11.8320923 6.25,11.625 L6.25,10.875 C6.25,10.6679077 6.44189453,10.5 6.67857143,10.5 L7.10714286,10.5 L7.10714286,8.5 L6.67857143,8.5 C6.44189453,8.5 6.25,8.33209229 6.25,8.125 L6.25,7.375 C6.25,7.16790771 6.44189453,7 6.67857143,7 L8.96428571,7 C9.20096261,7 9.39285714,7.16790771 9.39285714,7.375 L9.39285714,10.5 L9.82142857,10.5 C10.0581055,10.5 10.25,10.6679077 10.25,10.875 L10.25,11.625 C10.25,11.8320923 10.0581055,12 9.82142857,12 Z" id="i"></path>
        </g>
    </g>
</svg>