<?xml version="1.0" encoding="UTF-8"?>
<svg width="16px" height="16px" viewBox="0 0 16 16" version="1.1" xmlns="http://www.w3.org/2000/svg" xmlns:xlink="http://www.w3.org/1999/xlink">
    <!-- Generator: Sketch 64 (93537) - https://sketch.com -->
    <title>s</title>
    <desc>Created with Sketch.</desc>
    <g id="Page-1" stroke="none" stroke-width="1" fill="none" fill-rule="evenodd">
        <g id="Artboard" fill="#808080" fill-rule="nonzero">
            <path d="M15.6249627,7.01094196 C15.831963,7.01094196 15.9999619,6.84294309 15.9999619,6.63594285 L15.9999619,0.375032485 C15.9999619,0.168032246 15.831963,3.33786011e-05 15.6249627,3.33786011e-05 L14.1446501,3.33786011e-05 C13.9377719,0.000155448623 13.7698646,0.168154316 13.7698646,0.375032485 C13.7698646,0.379945803 13.7700477,0.387941389 13.7702919,0.392854708 L13.8952916,2.97939639 C12.618134,1.47277767 9.97864442,0.250032783 8.00355147,0.250032783 L7.99467088,0.250032783 C4.21031711,0.250032783 1.05968986,2.96627387 0.384062805,6.55690251 C0.380614327,6.57554871 0.377806716,6.60606621 0.377806716,6.62501758 C0.377806716,6.83201782 0.545805583,7.00001669 0.752805822,7.00001669 L2.28560856,7.00001669 C2.44951809,6.99983358 2.61287829,6.87019522 2.65029275,6.7106497 C3.21019742,4.38701633 5.60441779,2.50118708 7.99451829,2.50118708 C9.61090848,2.50118708 11.6546963,3.58986857 12.5565191,4.93126552 L9.38590292,4.77941041 C9.3809896,4.77916627 9.37302453,4.77898317 9.36811121,4.77898317 C9.16111097,4.77898317 8.9931121,4.94698203 8.9931121,5.15398227 L8.9931121,6.63594285 C8.9931121,6.84294309 9.16111097,7.01094196 9.36811121,7.01094196 L15.6249627,7.01094196 Z M1.85515915,15.9999952 C2.06215939,15.9999952 2.23015826,15.8319964 2.23015826,15.6249961 C2.23015826,15.6198081 2.22994463,15.6114158 2.22966998,15.6062584 L2.1000011,13.0259423 C3.37703663,14.5296313 6.01457306,15.7499958 7.98734668,15.7499958 L7.99467088,15.7499958 C11.7793603,15.7499958 14.9299571,13.0337547 15.6055841,9.4431261 C15.6090326,9.4244799 15.6118402,9.3939624 15.6118402,9.37501103 C15.6118402,9.16801079 15.4438414,9.00001192 15.2368411,9.00001192 L13.7040384,9.00001192 C13.5401289,9.00019503 13.3767686,9.12983339 13.3393542,9.28937891 C12.7803956,11.6136532 10.3866024,13.5000012 7.99607469,13.5000012 L7.98997118,13.5000012 C6.37406928,13.5000012 4.33217351,12.4108009 3.43218176,11.0687631 L6.61341807,11.2209539 C6.61833139,11.2211675 6.62632698,11.2213811 6.63124029,11.2213811 C6.83824053,11.2213811 7.0062394,11.0533823 7.0062394,10.846382 L7.0062394,9.36469611 C7.0062394,9.15769587 6.83824053,8.989697 6.63124029,8.989697 L0.374999106,8.989697 C0.167998867,8.989697 0,9.15769587 0,9.36469611 L0,15.6249961 C0,15.8319964 0.167998867,15.9999952 0.374999106,15.9999952 L1.85515915,15.9999952 Z" id="s"></path>
        </g>
    </g>
</svg>