<?xml version="1.0" encoding="UTF-8"?>
<svg width="16" height="16" viewBox="0 0 16 16" version="1.1" xmlns="http://www.w3.org/2000/svg" xmlns:xlink="http://www.w3.org/1999/xlink">
    <!-- Generator: Sketch 64 (93537) - https://sketch.com -->
    <title>u</title>
    <desc>Created with Sketch.</desc>
    <g id="Page-1" stroke="none" stroke-width="1" fill="none" fill-rule="evenodd">
        <g id="Artboard" fill="#808080" fill-rule="nonzero">
            <path d="M8,16 C12.4193548,16 16,12.4193548 16,8 C16,3.58064516 12.4193548,0 8,0 C3.58064516,0 0,3.58064516 0,8 C0,12.4193548 3.58064516,16 8,16 Z M8,9 C6.34319513,9 5,7.65680487 5,6 C5,4.34319513 6.34319513,3 8,3 C9.65680487,3 11,4.34319513 11,6 C11,7.65680487 9.65680487,9 8,9 Z M8,14 C6.19692233,14 4.58123467,13.1687622 3.5,11.8687439 C4.0774684,10.7625122 5.20783783,10 6.52559727,10 C6.5993294,10 6.67303154,10.0125122 6.74367401,10.0343628 C7.14299141,10.1656189 7.56075685,10.25 8,10.25 C8.43924315,10.25 8.86006826,10.1656189 9.25632599,10.0343628 C9.32696846,10.0125122 9.4006706,10 9.47440273,10 C10.7921622,10 11.9225316,10.7625122 12.5,11.8687439 C11.4187653,13.1687622 9.80307767,14 8,14 Z" id="u"></path>
        </g>
    </g>
</svg>